<svg id="visual" viewBox="0 0 960 100" width="960" height="100" xmlns="http://www.w3.org/2000/svg" xmlns:xlink="http://www.w3.org/1999/xlink" version="1.1"><rect x="0" y="0" width="960" height="100" fill="#FCAF3C"></rect><path d="M0 68L20 70.3C40 72.7 80 77.3 120 71.7C160 66 200 50 240 43.3C280 36.7 320 39.3 360 47.8C400 56.3 440 70.7 480 77.3C520 84 560 83 600 79.5C640 76 680 70 720 63.3C760 56.7 800 49.3 840 51.3C880 53.3 920 64.7 940 70.3L960 76L960 101L940 101C920 101 880 101 840 101C800 101 760 101 720 101C680 101 640 101 600 101C560 101 520 101 480 101C440 101 400 101 360 101C320 101 280 101 240 101C200 101 160 101 120 101C80 101 40 101 20 101L0 101Z" fill="#a7a783" stroke-linecap="round" stroke-linejoin="miter"></path></svg>