<svg id="visual" viewBox="0 0 960 100" width="960" height="100" xmlns="http://www.w3.org/2000/svg" xmlns:xlink="http://www.w3.org/1999/xlink" version="1.1"><rect x="0" y="0" width="960" height="100" fill="#FFFFFF"></rect><path d="M0 30L20 27.7C40 25.3 80 20.7 120 26.3C160 32 200 48 240 54.7C280 61.3 320 58.7 360 50.2C400 41.7 440 27.3 480 20.7C520 14 560 15 600 18.5C640 22 680 28 720 34.7C760 41.3 800 48.7 840 46.7C880 44.7 920 33.3 940 27.7L960 22L960 0L940 0C920 0 880 0 840 0C800 0 760 0 720 0C680 0 640 0 600 0C560 0 520 0 480 0C440 0 400 0 360 0C320 0 280 0 240 0C200 0 160 0 120 0C80 0 40 0 20 0L0 0Z" fill="#a7a783" stroke-linecap="round" stroke-linejoin="miter"></path></svg>