<svg id="visual" viewBox="0 0 960 100" width="960" height="100" xmlns="http://www.w3.org/2000/svg" xmlns:xlink="http://www.w3.org/1999/xlink" version="1.1"><rect x="0" y="0" width="960" height="100" fill="#e4b36a"></rect><path d="M0 41L17.8 48.8C35.7 56.7 71.3 72.3 106.8 74.2C142.3 76 177.7 64 213.2 64C248.7 64 284.3 76 320 78.8C355.7 81.7 391.3 75.3 426.8 68.2C462.3 61 497.7 53 533.2 53.3C568.7 53.7 604.3 62.3 640 65.8C675.7 69.3 711.3 67.7 746.8 64.2C782.3 60.7 817.7 55.3 853.2 53.8C888.7 52.3 924.3 54.7 942.2 55.8L960 57L960 101L942.2 101C924.3 101 888.7 101 853.2 101C817.7 101 782.3 101 746.8 101C711.3 101 675.7 101 640 101C604.3 101 568.7 101 533.2 101C497.7 101 462.3 101 426.8 101C391.3 101 355.7 101 320 101C284.3 101 248.7 101 213.2 101C177.7 101 142.3 101 106.8 101C71.3 101 35.7 101 17.8 101L0 101Z" fill="#a7a783" stroke-linecap="round" stroke-linejoin="miter"></path></svg>